<svg width="24" height="24" viewBox="0 0 24 24" fill="none" xmlns="http://www.w3.org/2000/svg">
<path d="M14.25 16.5H13.5C12.6716 16.5 12 15.8284 12 15V11.25C12 10.8358 11.6642 10.5 11.25 10.5H10.5M12 23.25C18.2132 23.25 23.25 18.2132 23.25 12C23.25 5.7868 18.2132 0.75 12 0.75C5.7868 0.75 0.75 5.7868 0.75 12C0.75 18.2132 5.7868 23.25 12 23.25Z" stroke="#ffffff" stroke-width="2" stroke-linecap="round" stroke-linejoin="round"/>
<path fill-rule="evenodd" clip-rule="evenodd" d="M12 6.40918C11.7235 6.40918 11.4994 6.63331 11.4994 6.90978C11.4994 7.18626 11.7235 7.41039 12 7.41039C12.2765 7.41039 12.5006 7.18626 12.5006 6.90978C12.5006 6.63331 12.2765 6.40918 12 6.40918Z" stroke="#ffffff" stroke-linecap="round" stroke-linejoin="round"/>
</svg>
